<svg xmlns="http://www.w3.org/2000/svg" width="560" height="280" viewBox="0 0 560 280">
<text x="280.0" y="28" text-anchor="middle" font-size="18" font-weight="bold" fill="#333">Basic Series Circuit</text>
<line x1="50" y1="150" x2="570" y2="150" stroke="#333" stroke-width="2"/>
<line x1="42" y1="132" x2="42" y2="168" stroke="#e74c3c" stroke-width="4"/>
<line x1="58" y1="138" x2="58" y2="162" stroke="#e74c3c" stroke-width="3"/>
<text x="50" y="122" text-anchor="middle" font-size="11" font-weight="bold" fill="#2c3e50">+/−</text>
<path d="M158,150 l10,-10 l10,20 l10,-20 l10,20 l10,-10" fill="none" stroke="#2980b9" stroke-width="2"/>
<text x="180" y="122" text-anchor="middle" font-size="11" font-weight="bold" fill="#2c3e50">R1</text>
<text x="180" y="182" text-anchor="middle" font-size="10" fill="#555">10Ω</text>
<circle cx="310" cy="150" r="18" fill="none" stroke="#f1c40f" stroke-width="3"/>
<line x1="298" y1="138" x2="322" y2="162" stroke="#f1c40f" stroke-width="2"/>
<line x1="298" y1="162" x2="322" y2="138" stroke="#f1c40f" stroke-width="2"/>
<text x="310" y="122" text-anchor="middle" font-size="11" font-weight="bold" fill="#2c3e50">Lamp</text>
<path d="M418,150 l10,-10 l10,20 l10,-20 l10,20 l10,-10" fill="none" stroke="#2980b9" stroke-width="2"/>
<text x="440" y="122" text-anchor="middle" font-size="11" font-weight="bold" fill="#2c3e50">R2</text>
<text x="440" y="182" text-anchor="middle" font-size="10" fill="#555">5Ω</text>
</svg>