<svg xmlns="http://www.w3.org/2000/svg" width="600" height="400" viewBox="0 0 600 400">
<style>
.axis { stroke: #333; stroke-width: 2; }
.grid { stroke: #ddd; stroke-width: 0.5; }
.curve { stroke: #2980b9; stroke-width: 2.5; fill: none; }
.label { font-size: 12px; fill: #333; font-family: Arial; }
</style>
<defs>
<marker id="arrowhead" markerWidth="10" markerHeight="10" refX="9" refY="3" orient="auto">
<polygon points="0 0, 10 3, 0 6" fill="#333" />
</marker>
</defs>
<rect width="600" height="400" fill="#f9f9f9"/>
<line class="grid" x1="100" y1="0" x2="100" y2="400"/>
<line class="grid" x1="0" y1="0" x2="600" y2="0"/>
<line class="grid" x1="200" y1="0" x2="200" y2="400"/>
<line class="grid" x1="0" y1="100" x2="600" y2="100"/>
<line class="grid" x1="300" y1="0" x2="300" y2="400"/>
<line class="grid" x1="0" y1="200" x2="600" y2="200"/>
<line class="grid" x1="400" y1="0" x2="400" y2="400"/>
<line class="grid" x1="0" y1="300" x2="600" y2="300"/>
<line class="grid" x1="500" y1="0" x2="500" y2="400"/>
<line class="grid" x1="0" y1="400" x2="600" y2="400"/>
<line class="axis" x1="50" y1="200" x2="550" y2="200" marker-end="url(#arrowhead)"/>
<line class="axis" x1="300" y1="50" x2="300" y2="350" marker-end="url(#arrowhead)"/>
<text class="label" x="560" y="190">x</text>
<text class="label" x="310" y="40">y</text>
<polyline class="curve" points="280.0,189.11957778221262 L 280.2,190.84928212449358 L 280.4,192.67041741496143 L 280.6,194.56478747178113 L 280.8,196.51346437554037 L 281.0,198.49697759076378 L 281.2,200.49550850906712 L 281.4,202.4890884701412 L 281.6,204.4577982820049 L 281.8,206.38196724698696 L 282.0,208.24236970483506 L 282.2,210.02041712915764 L 282.4,211.69834385783517 L 282.59999999999997,213.25938460164357 L 282.8,214.6879419574822 L 283.0,215.96974225246973 L 283.2,217.09197816176555 L 283.4,218.04343667512583 L 283.59999999999997,218.8146111335954 L 283.8,219.3977962169017 L 284.0,219.78716493246762 L 284.2,219.97882683679543 L 284.4,219.9708669074921 L 284.59999999999997,219.76336467754004 L 284.79999999999995,219.35839344062978 L 285.0,218.75999953549484 L 285.2,217.97416191623262 L 285.4,217.0087324125714 L 285.59999999999997,215.87335727698317 L 285.79999999999995,214.57938080251768 L 286.0,213.13973197437593 L 286.2,211.56879528776417 L 286.4,209.88226702277237 L 286.59999999999997,208.09699841233217 L 286.79999999999995,206.23082727026778 L 287.0,204.30239976175656 L 287.2,202.33098409701012 L 287.4,200.33627800968725 L 287.59999999999997,198.33821194365035 L 287.79999999999995,196.35674991455835 L 288.0,194.41169003602175 L 288.2,192.52246670339554 L 288.4,190.70795641172512 L 288.59999999999997,188.9862891480475 L 288.79999999999995,187.3746672425538 L 288.99999999999994,185.88919348859238 L 289.2,184.54471024888045 L 289.4,183.35465115552216 L 289.59999999999997,182.3309068855971 L 289.79999999999995,181.48370635344548 L 289.99999999999994,180.82151450673734 L 290.2,180.35094774751343 L 290.4,180.07670782328321 L 290.59999999999997,180.00153484871797 L 290.79999999999995,180.12617992733067 L 290.99999999999994,180.44939764669797 L 291.19999999999993,180.96795852220956 L 291.4,181.67668126501073 L 291.59999999999997,182.56848455172803 L 291.79999999999995,183.63445777871155 L 291.99999999999994,184.86395009384117 L 292.19999999999993,186.2446768163202 L 292.4,187.7628421811453 L 292.59999999999997,189.40327718182976 L 292.79999999999995,191.14959113410256 L 292.99999999999994,192.9843354462072 L 293.19999999999993,194.88917795946298 L 293.4,196.84508611713463 L 293.59999999999997,198.832517131448 L 293.79999999999995,200.8316132486654 L 293.99999999999994,202.82240016119695 L 294.19999999999993,204.78498658427924 L 294.4,206.6997630031177 L 294.59999999999997,208.54759760467624 L 294.79999999999995,210.31002743642895 L 294.99999999999994,211.9694428820788 L 295.19999999999993,213.50926361102273 L 295.4,214.91410424353413 L 295.59999999999997,216.16992807639156 L 295.79999999999995,217.2641873329773 L 295.99999999999994,218.18594853651348 L 296.2,218.92600175374815 L 296.4,219.47695261756382 L 296.59999999999997,219.8332962090493 L 296.79999999999995,219.9914720608301 L 296.99999999999994,219.94989973208112 L 297.2,219.70899459976926 L 297.4,219.27116370834398 L 297.59999999999997,218.64078171934466 L 297.79999999999995,217.82414720122887 L 297.99999999999994,216.82941969615814 L 298.2,215.6665381925499 L 298.4,214.3471218179907 L 298.59999999999997,212.8843537447541 L 298.79999999999995,211.29284946790102 L 298.99999999999994,209.5885107720844 L 299.2,207.78836684617335 L 299.4,205.91040413322716 L 299.59999999999997,203.9733866159016 L 299.79999999999995,201.99666833293693 L 299.99999999999994,200.00000000000037 L 300.2,198.0033316670638 L 300.4,196.02661338409914 L 300.59999999999997,194.08959586677358 L 300.79999999999995,192.21163315382734 L 300.99999999999994,190.41148922791626 L 301.2,188.7071505320996 L 301.4,187.11564625524647 L 301.59999999999997,185.6528781820098 L 301.79999999999995,184.33346180745056 L 301.99999999999994,183.17058030384229 L 302.2,182.17585279877147 L 302.4,181.35921828065563 L 302.59999999999997,180.72883629165625 L 302.79999999999995,180.29100540023086 L 302.99999999999994,180.05010026791894 L 303.2,180.00852793916988 L 303.4,180.16670379095058 L 303.59999999999997,180.523047382436 L 303.79999999999995,181.0739982462516 L 303.99999999999994,181.8140514634862 L 304.2,182.73581266702234 L 304.4,183.830071923608 L 304.59999999999997,185.08589575646536 L 304.79999999999995,186.49073638897673 L 304.99999999999994,188.03055711792058 L 305.2,189.68997256357042 L 305.4,191.45240239532308 L 305.59999999999997,193.30023699688158 L 305.79999999999995,195.21501341572002 L 305.99999999999994,197.1775998388023 L 306.2,199.16838675133386 L 306.4,201.16748286855125 L 306.59999999999997,203.15491388286463 L 306.79999999999995,205.1108220405363 L 306.99999999999994,207.01566455379208 L 307.2,208.85040886589675 L 307.4,210.59672281816958 L 307.59999999999997,212.23715781885412 L 307.79999999999995,213.75532318367922 L 307.99999999999994,215.13604990615835 L 308.2,216.36554222128802 L 308.4,217.4315154482716 L 308.59999999999997,218.32331873498896 L 308.79999999999995,219.03204147779022 L 308.99999999999994,219.55060235330185 L 309.2,219.87382007266925 L 309.4,219.998465151282 L 309.59999999999997,219.92329217671684 L 309.79999999999995,219.6490522524867 L 309.99999999999994,219.17848549326288 L 310.19999999999993,218.5162936465548 L 310.4,217.66909311440327 L 310.59999999999997,216.64534884447826 L 310.79999999999995,215.45528975112 L 310.99999999999994,214.11080651140813 L 311.19999999999993,212.62533275744676 L 311.4,211.01371085195314 L 311.59999999999997,209.29204358827553 L 311.79999999999995,207.47753329660515 L 311.99999999999994,205.58830996397896 L 312.19999999999993,203.64325008544236 L 312.4,201.66178805635042 L 312.59999999999997,199.6637219903135 L 312.79999999999995,197.66901590299062 L 312.99999999999994,195.69760023824418 L 313.19999999999993,193.76917272973293 L 313.4,191.9030015876685 L 313.59999999999997,190.1177329772283 L 313.79999999999995,188.43120471223642 L 313.99999999999994,186.86026802562463 L 314.19999999999993,185.42061919748284 L 314.3999999999999,184.12664272301728 L 314.59999999999997,182.991267587429 L 314.79999999999995,182.02583808376772 L 314.99999999999994,181.2400004645054 L 315.19999999999993,180.64160655937042 L 315.3999999999999,180.23663532246007 L 315.59999999999997,180.02913309250795 L 315.79999999999995,180.02117316320454 L 315.99999999999994,180.21283506753227 L 316.19999999999993,180.60220378309813 L 316.3999999999999,181.18538886640434 L 316.5999999999999,181.95656332487385 L 316.79999999999995,182.90802183823405 L 316.99999999999994,184.03025774752982 L 317.19999999999993,185.3120580425173 L 317.3999999999999,186.74061539835586 L 317.5999999999999,188.30165614216423 L 317.79999999999995,189.9795828708417 L 317.99999999999994,191.75763029516426 L 318.19999999999993,193.61803275301233 L 318.3999999999999,195.5422017179944 L 318.5999999999999,197.51091152985805 L 318.79999999999995,199.50449149093214 L 318.99999999999994,201.50302240923548 L 319.19999999999993,203.4865356244589 L 319.3999999999999,205.43521252821816 L 319.5999999999999,207.32958258503788 L 319.79999999999995,209.15071787550576 L 319.99999999999994,210.88042221778676"/>
<text class="label" x="20" y="25" font-size="14" font-weight="bold">Sine</text>
</svg>