<svg xmlns="http://www.w3.org/2000/svg" width="600" height="400" viewBox="0 0 600 400">
<style>
.axis { stroke: #333; stroke-width: 2; }
.grid { stroke: #ddd; stroke-width: 0.5; }
.curve { stroke: #2980b9; stroke-width: 2.5; fill: none; }
.label { font-size: 12px; fill: #333; font-family: Arial; }
</style>
<defs>
<marker id="arrowhead" markerWidth="10" markerHeight="10" refX="9" refY="3" orient="auto">
<polygon points="0 0, 10 3, 0 6" fill="#333" />
</marker>
</defs>
<rect width="600" height="400" fill="#f9f9f9"/>
<line class="grid" x1="100" y1="0" x2="100" y2="400"/>
<line class="grid" x1="0" y1="0" x2="600" y2="0"/>
<line class="grid" x1="200" y1="0" x2="200" y2="400"/>
<line class="grid" x1="0" y1="100" x2="600" y2="100"/>
<line class="grid" x1="300" y1="0" x2="300" y2="400"/>
<line class="grid" x1="0" y1="200" x2="600" y2="200"/>
<line class="grid" x1="400" y1="0" x2="400" y2="400"/>
<line class="grid" x1="0" y1="300" x2="600" y2="300"/>
<line class="grid" x1="500" y1="0" x2="500" y2="400"/>
<line class="grid" x1="0" y1="400" x2="600" y2="400"/>
<line class="axis" x1="50" y1="200" x2="550" y2="200" marker-end="url(#arrowhead)"/>
<line class="axis" x1="300" y1="50" x2="300" y2="350" marker-end="url(#arrowhead)"/>
<text class="label" x="560" y="190">x</text>
<text class="label" x="310" y="40">y</text>
<polyline class="curve" points="280.0,180.0 L 280.2,180.398 L 280.4,180.792 L 280.6,181.182 L 280.8,181.56799999999998 L 281.0,181.95 L 281.2,182.328 L 281.4,182.702 L 281.6,183.072 L 281.8,183.438 L 282.0,183.79999999999998 L 282.2,184.158 L 282.4,184.512 L 282.59999999999997,184.862 L 282.8,185.20799999999997 L 283.0,185.54999999999998 L 283.2,185.88799999999998 L 283.4,186.22199999999998 L 283.59999999999997,186.55199999999996 L 283.8,186.878 L 284.0,187.2 L 284.2,187.51799999999997 L 284.4,187.83199999999997 L 284.59999999999997,188.14199999999997 L 284.79999999999995,188.44799999999998 L 285.0,188.74999999999997 L 285.2,189.04799999999997 L 285.4,189.34199999999998 L 285.59999999999997,189.63199999999998 L 285.79999999999995,189.91799999999998 L 286.0,190.19999999999996 L 286.2,190.47799999999998 L 286.4,190.75199999999998 L 286.59999999999997,191.02199999999996 L 286.79999999999995,191.28799999999995 L 287.0,191.54999999999995 L 287.2,191.80799999999996 L 287.4,192.06199999999995 L 287.59999999999997,192.31199999999995 L 287.79999999999995,192.55799999999996 L 288.0,192.79999999999995 L 288.2,193.03799999999995 L 288.4,193.27199999999996 L 288.59999999999997,193.50199999999995 L 288.79999999999995,193.72799999999995 L 288.99999999999994,193.94999999999996 L 289.2,194.16799999999998 L 289.4,194.38199999999998 L 289.59999999999997,194.59199999999996 L 289.79999999999995,194.79799999999997 L 289.99999999999994,194.99999999999997 L 290.2,195.19799999999995 L 290.4,195.39199999999997 L 290.59999999999997,195.58199999999997 L 290.79999999999995,195.76799999999997 L 290.99999999999994,195.94999999999996 L 291.19999999999993,196.12799999999996 L 291.4,196.30199999999996 L 291.59999999999997,196.47199999999995 L 291.79999999999995,196.63799999999998 L 291.99999999999994,196.79999999999995 L 292.19999999999993,196.95799999999997 L 292.4,197.11199999999997 L 292.59999999999997,197.26199999999997 L 292.79999999999995,197.40799999999996 L 292.99999999999994,197.54999999999998 L 293.19999999999993,197.68799999999996 L 293.4,197.82199999999997 L 293.59999999999997,197.95199999999997 L 293.79999999999995,198.07799999999997 L 293.99999999999994,198.2 L 294.19999999999993,198.31799999999998 L 294.4,198.432 L 294.59999999999997,198.54199999999997 L 294.79999999999995,198.64799999999997 L 294.99999999999994,198.74999999999997 L 295.19999999999993,198.84799999999998 L 295.4,198.94199999999998 L 295.59999999999997,199.03199999999998 L 295.79999999999995,199.118 L 295.99999999999994,199.2 L 296.2,199.278 L 296.4,199.35199999999998 L 296.59999999999997,199.422 L 296.79999999999995,199.488 L 296.99999999999994,199.54999999999998 L 297.2,199.60799999999998 L 297.4,199.66199999999998 L 297.59999999999997,199.712 L 297.79999999999995,199.75799999999998 L 297.99999999999994,199.79999999999998 L 298.2,199.838 L 298.4,199.87199999999999 L 298.59999999999997,199.902 L 298.79999999999995,199.928 L 298.99999999999994,199.95 L 299.2,199.968 L 299.4,199.982 L 299.59999999999997,199.992 L 299.79999999999995,199.998 L 299.99999999999994,200.0 L 300.2,199.998 L 300.4,199.992 L 300.59999999999997,199.982 L 300.79999999999995,199.968 L 300.99999999999994,199.95000000000002 L 301.2,199.928 L 301.4,199.90200000000002 L 301.59999999999997,199.872 L 301.79999999999995,199.838 L 301.99999999999994,199.8 L 302.2,199.758 L 302.4,199.71200000000002 L 302.59999999999997,199.662 L 302.79999999999995,199.608 L 302.99999999999994,199.55 L 303.2,199.488 L 303.4,199.42200000000003 L 303.59999999999997,199.352 L 303.79999999999995,199.27800000000002 L 303.99999999999994,199.20000000000002 L 304.2,199.11800000000002 L 304.4,199.032 L 304.59999999999997,198.942 L 304.79999999999995,198.848 L 304.99999999999994,198.75000000000003 L 305.2,198.64800000000002 L 305.4,198.54200000000003 L 305.59999999999997,198.43200000000002 L 305.79999999999995,198.318 L 305.99999999999994,198.20000000000002 L 306.2,198.07800000000003 L 306.4,197.95200000000003 L 306.59999999999997,197.82200000000003 L 306.79999999999995,197.68800000000002 L 306.99999999999994,197.55 L 307.2,197.40800000000002 L 307.4,197.26200000000003 L 307.59999999999997,197.11200000000002 L 307.79999999999995,196.95800000000003 L 307.99999999999994,196.80000000000004 L 308.2,196.63800000000003 L 308.4,196.47200000000004 L 308.59999999999997,196.30200000000002 L 308.79999999999995,196.12800000000004 L 308.99999999999994,195.95000000000005 L 309.2,195.76800000000003 L 309.4,195.58200000000002 L 309.59999999999997,195.39200000000002 L 309.79999999999995,195.19800000000004 L 309.99999999999994,195.00000000000003 L 310.19999999999993,194.79800000000003 L 310.4,194.59200000000004 L 310.59999999999997,194.38200000000003 L 310.79999999999995,194.16800000000003 L 310.99999999999994,193.95000000000005 L 311.19999999999993,193.72800000000004 L 311.4,193.50200000000004 L 311.59999999999997,193.27200000000005 L 311.79999999999995,193.03800000000007 L 311.99999999999994,192.80000000000007 L 312.19999999999993,192.55800000000005 L 312.4,192.31200000000007 L 312.59999999999997,192.06200000000007 L 312.79999999999995,191.80800000000005 L 312.99999999999994,191.55000000000007 L 313.19999999999993,191.28800000000007 L 313.4,191.02200000000008 L 313.59999999999997,190.75200000000007 L 313.79999999999995,190.47800000000007 L 313.99999999999994,190.20000000000007 L 314.19999999999993,189.91800000000006 L 314.3999999999999,189.6320000000001 L 314.59999999999997,189.34200000000007 L 314.79999999999995,189.0480000000001 L 314.99999999999994,188.75000000000009 L 315.19999999999993,188.4480000000001 L 315.3999999999999,188.14200000000008 L 315.59999999999997,187.8320000000001 L 315.79999999999995,187.5180000000001 L 315.99999999999994,187.2000000000001 L 316.19999999999993,186.8780000000001 L 316.3999999999999,186.5520000000001 L 316.5999999999999,186.2220000000001 L 316.79999999999995,185.88800000000012 L 316.99999999999994,185.5500000000001 L 317.19999999999993,185.2080000000001 L 317.3999999999999,184.8620000000001 L 317.5999999999999,184.5120000000001 L 317.79999999999995,184.15800000000013 L 317.99999999999994,183.80000000000013 L 318.19999999999993,183.43800000000013 L 318.3999999999999,183.07200000000012 L 318.5999999999999,182.70200000000014 L 318.79999999999995,182.32800000000015 L 318.99999999999994,181.95000000000013 L 319.19999999999993,181.56800000000013 L 319.3999999999999,181.18200000000013 L 319.5999999999999,180.79200000000014 L 319.79999999999995,180.39800000000014 L 319.99999999999994,180.00000000000014"/>
<text class="label" x="20" y="25" font-size="14" font-weight="bold">Quadratic</text>
</svg>