<svg xmlns="http://www.w3.org/2000/svg" width="600" height="400" viewBox="0 0 600 400">
<style>
.axis { stroke: #333; stroke-width: 2; }
.grid { stroke: #ddd; stroke-width: 0.5; }
.curve { stroke: #2980b9; stroke-width: 2.5; fill: none; }
.label { font-size: 12px; fill: #333; font-family: Arial; }
</style>
<defs>
<marker id="arrowhead" markerWidth="10" markerHeight="10" refX="9" refY="3" orient="auto">
<polygon points="0 0, 10 3, 0 6" fill="#333" />
</marker>
</defs>
<rect width="600" height="400" fill="#f9f9f9"/>
<line class="grid" x1="100" y1="0" x2="100" y2="400"/>
<line class="grid" x1="0" y1="0" x2="600" y2="0"/>
<line class="grid" x1="200" y1="0" x2="200" y2="400"/>
<line class="grid" x1="0" y1="100" x2="600" y2="100"/>
<line class="grid" x1="300" y1="0" x2="300" y2="400"/>
<line class="grid" x1="0" y1="200" x2="600" y2="200"/>
<line class="grid" x1="400" y1="0" x2="400" y2="400"/>
<line class="grid" x1="0" y1="300" x2="600" y2="300"/>
<line class="grid" x1="500" y1="0" x2="500" y2="400"/>
<line class="grid" x1="0" y1="400" x2="600" y2="400"/>
<line class="axis" x1="50" y1="200" x2="550" y2="200" marker-end="url(#arrowhead)"/>
<line class="axis" x1="300" y1="50" x2="300" y2="350" marker-end="url(#arrowhead)"/>
<text class="label" x="560" y="190">x</text>
<text class="label" x="310" y="40">y</text>
<polyline class="curve" points="280.0,217.35537190082647 L 280.2,217.1976841688337 L 280.4,217.039695565249 L 280.6,216.88140551600287 L 280.8,216.72281344593054 L 281.0,216.56391877876968 L 281.2,216.4047209371586 L 281.4,216.24521934263385 L 281.6,216.08541341562838 L 281.8,215.9253025754692 L 282.0,215.76488624037552 L 282.2,215.60416382745632 L 282.4,215.44313475270857 L 282.59999999999997,215.2817984310149 L 282.8,215.12015427614148 L 283.0,214.95820170073597 L 283.2,214.79594011632537 L 283.4,214.63336893331382 L 283.59999999999997,214.4704875609805 L 283.8,214.30729540747754 L 284.0,214.14379187982775 L 284.2,213.97997638392252 L 284.4,213.81584832451972 L 284.59999999999997,213.65140710524145 L 284.79999999999995,213.4866521285719 L 285.0,213.32158279585528 L 285.2,213.15619850729337 L 285.4,212.9904986619437 L 285.59999999999997,212.82448265771708 L 285.79999999999995,212.65814989137556 L 286.0,212.49149975853024 L 286.2,212.32453165363893 L 286.4,212.15724497000414 L 286.59999999999997,211.98963909977076 L 286.79999999999995,211.8217134339239 L 287.0,211.65346736228656 L 287.2,211.48490027351767 L 287.4,211.31601155510958 L 287.59999999999997,211.14680059338602 L 287.79999999999995,210.9772667734998 L 288.0,210.80740947943056 L 288.2,210.6372280939826 L 288.4,210.4667219987826 L 288.59999999999997,210.29589057427734 L 288.79999999999995,210.12473319973148 L 288.99999999999994,209.95324925322532 L 289.2,209.78143811165256 L 289.4,209.6092991507179 L 289.59999999999997,209.43683174493495 L 289.79999999999995,209.26403526762388 L 289.99999999999994,209.09090909090912 L 290.2,208.9174525857171 L 290.4,208.74366512177392 L 290.59999999999997,208.5695460676032 L 290.79999999999995,208.3950947905236 L 290.99999999999994,208.2203106566467 L 291.19999999999993,208.0451930308745 L 291.4,207.86974127689726 L 291.59999999999997,207.69395475719122 L 291.79999999999995,207.51783283301614 L 291.99999999999994,207.34137486441307 L 292.19999999999993,207.16458021020196 L 292.4,206.98744822797946 L 292.59999999999997,206.8099782741164 L 292.79999999999995,206.63216970375564 L 292.99999999999994,206.45402187080958 L 293.19999999999993,206.2755341279579 L 293.4,206.0967058266452 L 293.59999999999997,205.91753631707857 L 293.79999999999995,205.7380249482253 L 293.99999999999994,205.55817106781052 L 294.19999999999993,205.3779740223148 L 294.4,205.1974331569717 L 294.59999999999997,205.0165478157656 L 294.79999999999995,204.83531734142912 L 294.99999999999994,204.65374107544082 L 295.19999999999993,204.47181835802272 L 295.4,204.28954852813808 L 295.59999999999997,204.1069309234888 L 295.79999999999995,203.92396488051315 L 295.99999999999994,203.74064973438325 L 296.2,203.55698481900282 L 296.4,203.37296946700457 L 296.59999999999997,203.18860300974785 L 296.79999999999995,203.00388477731627 L 296.99999999999994,202.81881409851522 L 297.2,202.63339030086942 L 297.4,202.44761271062055 L 297.59999999999997,202.2614806527246 L 297.79999999999995,202.07499345084977 L 297.99999999999994,201.8881504273736 L 298.2,201.70095090338086 L 298.4,201.51339419866085 L 298.59999999999997,201.32547963170506 L 298.79999999999995,201.13720651970462 L 298.99999999999994,200.94857417854786 L 299.2,200.7595819228178 L 299.4,200.57022906578968 L 299.59999999999997,200.38051491942846 L 299.79999999999995,200.1904387943863 L 299.99999999999994,200.00000000000003 L 300.2,199.80919784428878 L 300.4,199.61803163395132 L 300.59999999999997,199.4265006743635 L 300.79999999999995,199.23460426957595 L 300.99999999999994,199.04234172231133 L 301.2,198.84971233396192 L 301.4,198.65671540458698 L 301.59999999999997,198.46335023291036 L 301.79999999999995,198.26961611631776 L 301.99999999999994,198.07551235085435 L 302.2,197.88103823122216 L 302.4,197.6861930507774 L 302.59999999999997,197.49097610152805 L 302.79999999999995,197.29538667413118 L 302.99999999999994,197.09942405789053 L 303.2,196.9030875407537 L 303.4,196.7063764093097 L 303.59999999999997,196.50928994878643 L 303.79999999999995,196.31182744304783 L 303.99999999999994,196.11398817459155 L 304.2,195.91577142454625 L 304.4,195.71717647266885 L 304.59999999999997,195.51820259734217 L 304.79999999999995,195.31884907557202 L 304.99999999999994,195.11911518298487 L 305.2,194.91900019382498 L 305.4,194.71850338095186 L 305.59999999999997,194.51762401583764 L 305.79999999999995,194.31636136856443 L 305.99999999999994,194.11471470782158 L 306.2,193.9126833009031 L 306.4,193.710266413705 L 306.59999999999997,193.5074633107226 L 306.79999999999995,193.3042732550479 L 306.99999999999994,193.10069550836673 L 307.2,192.89672933095636 L 307.4,192.69237398168258 L 307.59999999999997,192.48762871799707 L 307.79999999999995,192.28249279593473 L 307.99999999999994,192.07696547011096 L 308.2,191.87104599371895 L 308.4,191.66473361852692 L 308.59999999999997,191.45802759487555 L 308.79999999999995,191.25092717167507 L 308.99999999999994,191.04343159640263 L 309.2,190.83554011509958 L 309.4,190.62725197236864 L 309.59999999999997,190.4185664113713 L 309.79999999999995,190.20948267382488 L 309.99999999999994,190.00000000000003 L 310.19999999999993,189.79011762871767 L 310.4,189.57983479734645 L 310.59999999999997,189.36915074179984 L 310.79999999999995,189.15806469653353 L 310.99999999999994,188.94657589454246 L 311.19999999999993,188.7346835673581 L 311.4,188.5223869450457 L 311.59999999999997,188.30968525620136 L 311.79999999999995,188.09657772794955 L 311.99999999999994,187.8830635859398 L 312.19999999999993,187.66914205434438 L 312.4,187.45481235585513 L 312.59999999999997,187.24007371168082 L 312.79999999999995,187.0249253415443 L 312.99999999999994,186.8093664636796 L 313.19999999999993,186.59339629482906 L 313.4,186.3770140502407 L 313.59999999999997,186.1602189436651 L 313.79999999999995,185.94301018735263 L 313.99999999999994,185.72538699205072 L 314.19999999999993,185.5073485670009 L 314.3999999999999,185.28889411993578 L 314.59999999999997,185.0700228570764 L 314.79999999999995,184.85073398312923 L 314.99999999999994,184.63102670128336 L 315.19999999999993,184.4109002132075 L 315.3999999999999,184.19035371904707 L 315.59999999999997,183.96938641742145 L 315.79999999999995,183.7479975054209 L 315.99999999999994,183.52618617860375 L 316.19999999999993,183.30395163099342 L 316.3999999999999,183.08129305507552 L 316.5999999999999,182.8582096417949 L 316.79999999999995,182.6347005805527 L 316.99999999999994,182.4107650592034 L 317.19999999999993,182.18640226405202 L 317.3999999999999,181.96161137985086 L 317.5999999999999,181.7363915897968 L 317.79999999999995,181.5107420755282 L 317.99999999999994,181.2846620171221 L 318.19999999999993,181.05815059309086 L 318.3999999999999,180.83120698037965 L 318.5999999999999,180.60383035436314 L 318.79999999999995,180.3760198888426 L 318.99999999999994,180.14777475604293 L 319.19999999999993,179.91909412660956 L 319.3999999999999,179.68997716960553 L 319.5999999999999,179.46042305250845 L 319.79999999999995,179.23043094120743 L 319.99999999999994,179.00000000000006"/>
<text class="label" x="20" y="25" font-size="14" font-weight="bold">Exponential</text>
</svg>