<svg xmlns="http://www.w3.org/2000/svg" width="600" height="400" viewBox="0 0 600 400">
<style>
.line { stroke: #2980b9; stroke-width: 2.5; fill: none; }
.point { fill: #2980b9; stroke: white; stroke-width: 2; }
.grid { stroke: #e0e0e0; stroke-width: 0.5; }
.axis { stroke: #333; stroke-width: 1.5; }
.label { font-size: 11px; fill: #666; font-family: Arial; }
</style>
<rect width="600" height="400" fill="#f9f9f9"/>
<line class="axis" x1="50" y1="50" x2="50" y2="350"/>
<line class="axis" x1="50" y1="350" x2="550" y2="350"/>
<polyline class="line" points="50.0,350.0 L 95.45454545454545,290.0 L 140.9090909090909,230.0 L 186.36363636363637,290.0 L 231.8181818181818,230.0 L 277.27272727272725,170.0 L 322.72727272727275,230.0 L 368.1818181818182,170.0 L 413.6363636363636,110.0 L 459.09090909090907,170.0 L 504.5454545454545,110.0 L 550.0,50.0"/>
<circle class="point" cx="50.0" cy="350.0" r="4"/>
<circle class="point" cx="95.45454545454545" cy="290.0" r="4"/>
<circle class="point" cx="140.9090909090909" cy="230.0" r="4"/>
<circle class="point" cx="186.36363636363637" cy="290.0" r="4"/>
<circle class="point" cx="231.8181818181818" cy="230.0" r="4"/>
<circle class="point" cx="277.27272727272725" cy="170.0" r="4"/>
<circle class="point" cx="322.72727272727275" cy="230.0" r="4"/>
<circle class="point" cx="368.1818181818182" cy="170.0" r="4"/>
<circle class="point" cx="413.6363636363636" cy="110.0" r="4"/>
<circle class="point" cx="459.09090909090907" cy="170.0" r="4"/>
<circle class="point" cx="504.5454545454545" cy="110.0" r="4"/>
<circle class="point" cx="550.0" cy="50.0" r="4"/>
</svg>